<?xml version="1.0" standalone="no"?>
<!DOCTYPE svg PUBLIC "-//W3C//DTD SVG 20010904//EN"
 "http://www.w3.org/TR/2001/REC-SVG-20010904/DTD/svg10.dtd">
<svg version="1.0" xmlns="http://www.w3.org/2000/svg"
 width="666.000000pt" height="666.000000pt" viewBox="0 0 666.000000 666.000000"
 preserveAspectRatio="xMidYMid meet">
<metadata>
Created by potrace 1.11, written by Peter Selinger 2001-2013
</metadata>
<g transform="translate(0.000000,666.000000) scale(0.100000,-0.100000)"
fill="#000000" stroke="none">
<path d="M790 5603 c0 -147 -3 -546 -7 -885 l-6 -618 739 -1 c406 -1 789 -3
849 -4 61 -1 865 -6 1788 -10 l1677 -7 0 733 c1 404 3 798 6 877 4 113 3 143
-8 146 -17 6 -1332 15 -3083 21 -765 3 -1517 8 -1672 11 l-283 5 0 -268z"/>
<path d="M900 3663 c0 -187 -3 -604 -7 -927 l-6 -587 -444 3 -443 3 0 -1077 0
-1078 438 0 439 0 6 707 c4 388 7 872 7 1075 l0 368 118 0 119 0 6 167 c4 91
7 467 7 835 l0 668 448 0 c247 0 679 -3 961 -7 l513 -6 -3 -834 -4 -833 236 0
236 0 6 167 c4 91 7 468 7 836 l0 670 563 -6 c309 -4 741 -7 961 -7 l398 0 -3
-835 -4 -834 119 -3 120 -3 -3 -1062 -3 -1063 486 0 486 0 0 1060 0 1060 -419
0 c-230 0 -446 3 -481 7 l-62 6 3 921 4 921 -885 6 c-487 3 -1568 10 -2402 14
l-1518 7 0 -339z"/>
<path d="M1226 2944 c-4 -432 -5 -788 -2 -791 3 -3 397 -8 876 -11 l870 -5 0
790 0 790 -82 6 c-46 4 -437 7 -869 7 l-786 0 -7 -786z m979 541 c107 -23 189
-68 270 -149 109 -110 155 -222 155 -376 0 -157 -46 -268 -154 -375 -112 -110
-224 -157 -381 -158 -294 -1 -535 238 -535 529 0 151 53 278 161 385 131 131
303 182 484 144z"/>
<path d="M2010 3215 c-6 -15 -10 -78 -10 -141 l0 -114 -84 0 c-124 0 -123 -6
36 -166 73 -74 137 -134 143 -134 6 0 70 60 144 134 95 95 132 139 128 150 -5
13 -23 16 -91 16 l-85 0 -3 138 -3 137 -83 3 c-81 3 -82 2 -92 -23z"/>
<path d="M4339 3467 c-234 -80 -380 -281 -382 -527 -1 -190 78 -348 226 -454
223 -159 501 -136 692 58 143 145 195 336 145 530 -27 107 -63 169 -145 252
-111 112 -232 164 -384 164 -62 0 -104 -7 -152 -23z m293 -374 c71 -70 128
-131 128 -135 0 -5 -38 -8 -85 -8 l-84 0 -3 -132 -3 -133 -87 -3 -88 -3 0 129
c0 78 -4 132 -11 139 -6 6 -35 9 -73 6 -113 -10 -111 -2 32 140 71 70 133 127
138 127 5 0 66 -57 136 -127z"/>
</g>
</svg>
